<svg version="1.1" id="Layer_1" xmlns="http://www.w3.org/2000/svg" xmlns:xlink="http://www.w3.org/1999/xlink" x="0px" y="0px"
	 width="100%" viewBox="0 0 4096 4096" enable-background="new 0 0 4096 4096" xml:space="preserve">
<path fill="#ffffff" opacity="0" stroke="none" 
	d="
M1888.000000,4098.000000 
	C1258.666626,4098.000000 630.333313,4098.000000 2.000000,4098.000000 
	C2.000000,2732.666748 2.000000,1367.333374 2.000000,2.000000 
	C1367.333374,2.000000 2732.666748,2.000000 4098.000000,2.000000 
	C4098.000000,1367.333374 4098.000000,2732.666748 4098.000000,4098.000000 
	C3361.666748,4098.000000 2625.333252,4098.000000 1888.000000,4098.000000 
M1819.442749,2389.495605 
	C1818.093628,2386.818604 1816.717163,2384.154785 1815.399170,2381.462402 
	C1784.786377,2318.920166 1747.061646,2260.960205 1702.458374,2207.539307 
	C1665.602051,2163.396729 1623.946533,2124.156494 1579.006226,2088.311279 
	C1506.727783,2030.660522 1426.842651,1986.494385 1340.433960,1954.126587 
	C1267.529785,1926.817383 1191.651245,1912.304077 1114.322510,1905.952393 
	C1080.180054,1903.147949 1045.742676,1903.363892 1011.435608,1903.247437 
	C913.459839,1902.914673 815.482239,1903.191528 717.505432,1903.086304 
	C579.539551,1902.938110 441.573822,1902.656860 303.607971,1902.469727 
	C300.043243,1902.464966 296.477936,1902.891724 292.253601,1903.158936 
	C292.253601,1907.324097 291.995941,1910.604126 292.293427,1913.833130 
	C295.290253,1946.359009 299.626007,1978.661621 306.077545,2010.735718 
	C319.346008,2076.700684 339.677673,2140.352783 367.954407,2201.339355 
	C414.141144,2300.954346 476.335907,2389.260498 556.344849,2464.770264 
	C609.179138,2514.633301 666.886902,2557.909668 730.483826,2593.109131 
	C803.554138,2633.551758 881.030823,2662.493164 962.616760,2680.265869 
	C1018.132446,2692.359619 1074.407227,2698.709961 1131.187622,2699.249268 
	C1206.829590,2699.968018 1282.480835,2699.837158 1358.128052,2699.869141 
	C1505.760132,2699.931152 1653.392212,2699.854492 1801.024292,2699.830811 
	C1829.683960,2699.826172 1858.343750,2699.821045 1887.003418,2699.777344 
	C1901.969116,2699.754639 1902.072388,2699.669434 1900.299805,2684.408447 
	C1898.185303,2666.205566 1896.540161,2647.921387 1893.642700,2629.840576 
	C1880.328003,2546.753906 1855.776855,2467.075684 1819.442749,2389.495605 
M2025.406616,2674.431152 
	C2024.823608,2679.394775 2024.098389,2684.346924 2023.689575,2689.324951 
	C2022.996826,2697.761230 2023.789429,2698.746826 2031.908813,2699.165527 
	C2037.895630,2699.474121 2043.901733,2699.497314 2049.899170,2699.501709 
	C2287.529785,2699.670166 2525.160645,2699.775635 2762.791260,2700.017334 
	C2808.184570,2700.063477 2853.409912,2697.567139 2898.385986,2691.560547 
	C2960.391602,2683.279541 3020.619141,2667.521240 3079.263428,2645.977539 
	C3150.973633,2619.634277 3217.682373,2583.814209 3279.506104,2538.801514 
	C3329.255859,2502.579834 3375.127441,2462.130127 3416.188232,2416.283936 
	C3475.541260,2350.013916 3523.619385,2276.395996 3560.213379,2195.263672 
	C3600.754150,2105.380615 3625.145020,2011.395020 3632.512207,1913.035034 
	C3632.723877,1910.208252 3632.539062,1907.351929 3632.539062,1903.618286 
	C3626.307129,1903.618286 3621.353027,1903.619141 3616.398682,1903.618042 
	C3531.744873,1903.600342 3447.090820,1903.593872 3362.437012,1903.561768 
	C3200.795654,1903.500244 3039.153809,1903.235962 2877.512695,1903.431641 
	C2794.391602,1903.532349 2712.885742,1914.985229 2632.979492,1938.546143 
	C2487.998047,1981.295044 2364.076660,2058.454346 2259.165527,2166.469727 
	C2197.909912,2229.537842 2148.311279,2301.026367 2109.680664,2380.168213 
	C2064.476318,2472.778076 2037.121948,2570.398193 2025.406616,2674.431152 
M2361.785156,1577.154175 
	C2359.524902,1564.017212 2357.437744,1550.847656 2354.975830,1537.748657 
	C2339.599609,1455.941772 2315.697510,1376.701660 2284.525391,1299.509033 
	C2244.179932,1199.599609 2189.492432,1108.021606 2124.676758,1022.365234 
	C2077.891357,960.536621 2024.168091,904.951965 1967.208008,852.462280 
	C1965.555786,850.939697 1963.410522,849.952087 1961.741699,848.874268 
	C1960.635742,849.361145 1959.908813,849.490540 1959.451294,849.912231 
	C1955.042603,853.975586 1950.668457,858.076660 1946.304688,862.188477 
	C1902.107666,903.831909 1859.926758,947.427979 1821.860474,994.763611 
	C1776.682861,1050.942627 1735.919800,1110.119385 1701.638428,1173.744141 
	C1667.746826,1236.645752 1637.740967,1301.161133 1614.695435,1368.855591 
	C1588.411865,1446.061768 1569.971069,1525.083862 1559.280151,1605.921875 
	C1549.859009,1677.158936 1546.988403,1748.726685 1550.734375,1820.427368 
	C1552.505127,1854.321655 1557.164429,1888.060913 1560.283325,1921.891846 
	C1561.065918,1930.381226 1565.399658,1935.806152 1572.455200,1939.994873 
	C1600.598145,1956.702148 1626.591064,1976.427856 1652.282349,1996.638672 
	C1687.187378,2024.097656 1720.116577,2053.785400 1750.709229,2085.854736 
	C1772.521240,2108.719727 1792.893677,2133.050537 1812.779053,2157.640869 
	C1848.907959,2202.317627 1880.046631,2250.417725 1907.332397,2300.976074 
	C1926.982910,2337.387207 1943.751709,2375.120605 1958.240356,2413.874268 
	C1959.177002,2416.379639 1960.674194,2418.675537 1962.895142,2422.974121 
	C1965.107910,2417.696533 1966.443237,2414.731934 1967.607300,2411.701904 
	C1985.325073,2365.588135 2005.701294,2320.694580 2030.544434,2277.968506 
	C2071.226318,2208.002197 2118.397705,2142.851318 2174.820801,2084.555908 
	C2213.402588,2044.693604 2254.882568,2008.247192 2299.980957,1975.958740 
	C2318.402344,1962.769775 2337.133301,1950.012451 2355.766113,1937.120850 
	C2360.576904,1933.792603 2364.064941,1930.129761 2364.902100,1923.699951 
	C2371.923340,1869.763306 2376.408936,1815.659302 2375.848145,1761.234131 
	C2375.218750,1700.170288 2370.643799,1639.383789 2361.785156,1577.154175 
M1334.138550,1414.874390 
	C1305.537354,1395.935303 1277.449585,1376.159912 1248.234375,1358.220947 
	C1174.394165,1312.880371 1095.629028,1277.793335 1013.866211,1249.520386 
	C915.739685,1215.589233 814.680908,1195.591309 711.124573,1188.193604 
	C704.214722,1187.699951 697.302979,1187.232666 689.650940,1186.701782 
	C688.809265,1190.092285 687.847290,1192.875488 687.449341,1195.737061 
	C682.633911,1230.358643 677.160645,1264.909668 673.308350,1299.639771 
	C666.161804,1364.069702 666.552429,1428.675781 671.117798,1493.283936 
	C674.691956,1543.864868 681.524536,1594.075073 692.133484,1643.587891 
	C700.776672,1683.926147 711.227356,1723.949097 722.715149,1763.579102 
	C729.711914,1787.716309 725.730286,1784.670044 751.177612,1784.767944 
	C838.818542,1785.104858 926.461121,1785.129272 1014.102844,1785.054810 
	C1073.146362,1785.004639 1131.979736,1787.442017 1190.457397,1796.428467 
	C1242.269287,1804.390381 1293.350220,1815.479980 1343.146484,1831.810303 
	C1370.023071,1840.624390 1396.277832,1851.326660 1422.886597,1860.973999 
	C1426.341553,1862.226440 1429.691895,1865.494263 1433.208252,1863.615479 
	C1433.208252,1850.649780 1433.705933,1838.353394 1433.125854,1826.108032 
	C1429.886108,1757.726196 1431.801147,1689.489258 1439.614746,1621.504639 
	C1443.378296,1588.757812 1448.750000,1556.189331 1453.786987,1523.600952 
	C1454.751953,1517.357910 1453.661377,1513.325073 1448.810425,1508.854614 
	C1412.752197,1475.623779 1375.108887,1444.364014 1334.138550,1414.874390 
M2618.177490,1395.158936 
	C2568.493164,1428.941040 2521.117676,1465.572754 2477.884033,1507.453857 
	C2472.244385,1512.917236 2471.364258,1518.011353 2472.462158,1525.137451 
	C2476.165039,1549.172241 2479.698730,1573.245361 2482.617432,1597.386108 
	C2488.540527,1646.379395 2492.663574,1695.575806 2493.246826,1744.906738 
	C2493.671875,1780.860718 2491.595215,1816.843994 2490.654541,1852.814697 
	C2490.571289,1856.003906 2490.643555,1859.197021 2490.643555,1864.006592 
	C2500.356201,1860.434326 2508.744141,1857.531494 2516.996826,1854.284546 
	C2574.200684,1831.777710 2632.966309,1814.793823 2693.408936,1803.462646 
	C2753.859131,1792.130249 2814.782227,1786.176147 2876.277100,1786.120361 
	C2976.938721,1786.029053 3077.600098,1785.953247 3178.261719,1785.973999 
	C3199.127930,1785.978394 3195.528320,1786.944458 3200.967773,1768.991333 
	C3228.602051,1677.782349 3247.328613,1584.980347 3253.584229,1489.688354 
	C3260.057129,1391.090210 3255.039551,1293.212280 3238.203125,1195.897217 
	C3237.716064,1193.083008 3236.710938,1190.358765 3235.917480,1187.484131 
	C3233.031738,1187.484131 3231.052490,1187.359985 3229.092773,1187.502197 
	C3160.220703,1192.501587 3091.993652,1201.243042 3024.537109,1216.888550 
	C2938.385010,1236.870361 2856.011719,1267.019165 2776.101807,1304.284668 
	C2721.335938,1329.824463 2669.348633,1360.382446 2618.177490,1395.158936 
z"/>
<path fill="#FE553E" opacity="1.000000" stroke="none" 
	d="
M1819.773193,2390.169922 
	C1855.776855,2467.075684 1880.328003,2546.753906 1893.642700,2629.840576 
	C1896.540161,2647.921387 1898.185303,2666.205566 1900.299805,2684.408447 
	C1902.072388,2699.669434 1901.969116,2699.754639 1887.003418,2699.777344 
	C1858.343750,2699.821045 1829.683960,2699.826172 1801.024292,2699.830811 
	C1653.392212,2699.854492 1505.760132,2699.931152 1358.128052,2699.869141 
	C1282.480835,2699.837158 1206.829590,2699.968018 1131.187622,2699.249268 
	C1074.407227,2698.709961 1018.132446,2692.359619 962.616760,2680.265869 
	C881.030823,2662.493164 803.554138,2633.551758 730.483826,2593.109131 
	C666.886902,2557.909668 609.179138,2514.633301 556.344849,2464.770264 
	C476.335907,2389.260498 414.141144,2300.954346 367.954407,2201.339355 
	C339.677673,2140.352783 319.346008,2076.700684 306.077545,2010.735718 
	C299.626007,1978.661621 295.290253,1946.359009 292.293427,1913.833130 
	C291.995941,1910.604126 292.253601,1907.324097 292.253601,1903.158936 
	C296.477936,1902.891724 300.043243,1902.464966 303.607971,1902.469727 
	C441.573822,1902.656860 579.539551,1902.938110 717.505432,1903.086304 
	C815.482239,1903.191528 913.459839,1902.914673 1011.435608,1903.247437 
	C1045.742676,1903.363892 1080.180054,1903.147949 1114.322510,1905.952393 
	C1191.651245,1912.304077 1267.529785,1926.817383 1340.433960,1954.126587 
	C1426.842651,1986.494385 1506.727783,2030.660522 1579.006226,2088.311279 
	C1623.946533,2124.156494 1665.602051,2163.396729 1702.458374,2207.539307 
	C1747.061646,2260.960205 1784.786377,2318.920166 1815.399170,2381.462402 
	C1816.717163,2384.154785 1818.093628,2386.818604 1819.773193,2390.169922 
z"/>
<path fill="#FE553E" opacity="1.000000" stroke="none" 
	d="
M2025.471436,2673.524414 
	C2037.121948,2570.398193 2064.476318,2472.778076 2109.680664,2380.168213 
	C2148.311279,2301.026367 2197.909912,2229.537842 2259.165527,2166.469727 
	C2364.076660,2058.454346 2487.998047,1981.295044 2632.979492,1938.546143 
	C2712.885742,1914.985229 2794.391602,1903.532349 2877.512695,1903.431641 
	C3039.153809,1903.235962 3200.795654,1903.500244 3362.437012,1903.561768 
	C3447.090820,1903.593872 3531.744873,1903.600342 3616.398682,1903.618042 
	C3621.353027,1903.619141 3626.307129,1903.618286 3632.539062,1903.618286 
	C3632.539062,1907.351929 3632.723877,1910.208252 3632.512207,1913.035034 
	C3625.145020,2011.395020 3600.754150,2105.380615 3560.213379,2195.263672 
	C3523.619385,2276.395996 3475.541260,2350.013916 3416.188232,2416.283936 
	C3375.127441,2462.130127 3329.255859,2502.579834 3279.506104,2538.801514 
	C3217.682373,2583.814209 3150.973633,2619.634277 3079.263428,2645.977539 
	C3020.619141,2667.521240 2960.391602,2683.279541 2898.385986,2691.560547 
	C2853.409912,2697.567139 2808.184570,2700.063477 2762.791260,2700.017334 
	C2525.160645,2699.775635 2287.529785,2699.670166 2049.899170,2699.501709 
	C2043.901733,2699.497314 2037.895630,2699.474121 2031.908813,2699.165527 
	C2023.789429,2698.746826 2022.996826,2697.761230 2023.689575,2689.324951 
	C2024.098389,2684.346924 2024.823608,2679.394775 2025.471436,2673.524414 
z"/>
<path fill="#FE553E" opacity="1.000000" stroke="none" 
	d="
M2361.911865,1578.033691 
	C2370.643799,1639.383789 2375.218750,1700.170288 2375.848145,1761.234131 
	C2376.408936,1815.659302 2371.923340,1869.763306 2364.902100,1923.699951 
	C2364.064941,1930.129761 2360.576904,1933.792603 2355.766113,1937.120850 
	C2337.133301,1950.012451 2318.402344,1962.769775 2299.980957,1975.958740 
	C2254.882568,2008.247192 2213.402588,2044.693604 2174.820801,2084.555908 
	C2118.397705,2142.851318 2071.226318,2208.002197 2030.544434,2277.968506 
	C2005.701294,2320.694580 1985.325073,2365.588135 1967.607300,2411.701904 
	C1966.443237,2414.731934 1965.107910,2417.696533 1962.895142,2422.974121 
	C1960.674194,2418.675537 1959.177002,2416.379639 1958.240356,2413.874268 
	C1943.751709,2375.120605 1926.982910,2337.387207 1907.332397,2300.976074 
	C1880.046631,2250.417725 1848.907959,2202.317627 1812.779053,2157.640869 
	C1792.893677,2133.050537 1772.521240,2108.719727 1750.709229,2085.854736 
	C1720.116577,2053.785400 1687.187378,2024.097656 1652.282349,1996.638672 
	C1626.591064,1976.427856 1600.598145,1956.702148 1572.455200,1939.994873 
	C1565.399658,1935.806152 1561.065918,1930.381226 1560.283325,1921.891846 
	C1557.164429,1888.060913 1552.505127,1854.321655 1550.734375,1820.427368 
	C1546.988403,1748.726685 1549.859009,1677.158936 1559.280151,1605.921875 
	C1569.971069,1525.083862 1588.411865,1446.061768 1614.695435,1368.855591 
	C1637.740967,1301.161133 1667.746826,1236.645752 1701.638428,1173.744141 
	C1735.919800,1110.119385 1776.682861,1050.942627 1821.860474,994.763611 
	C1859.926758,947.427979 1902.107666,903.831909 1946.304688,862.188477 
	C1950.668457,858.076660 1955.042603,853.975586 1959.451294,849.912231 
	C1959.908813,849.490540 1960.635742,849.361145 1961.741699,848.874268 
	C1963.410522,849.952087 1965.555786,850.939697 1967.208008,852.462280 
	C2024.168091,904.951965 2077.891357,960.536621 2124.676758,1022.365234 
	C2189.492432,1108.021606 2244.179932,1199.599609 2284.525391,1299.509033 
	C2315.697510,1376.701660 2339.599609,1455.941772 2354.975830,1537.748657 
	C2357.437744,1550.847656 2359.524902,1564.017212 2361.911865,1578.033691 
z"/>
<path fill="#FD553D" opacity="1.000000" stroke="none" 
	d="
M1334.728027,1415.287354 
	C1375.108887,1444.364014 1412.752197,1475.623779 1448.810425,1508.854614 
	C1453.661377,1513.325073 1454.751953,1517.357910 1453.786987,1523.600952 
	C1448.750000,1556.189331 1443.378296,1588.757812 1439.614746,1621.504639 
	C1431.801147,1689.489258 1429.886108,1757.726196 1433.125854,1826.108032 
	C1433.705933,1838.353394 1433.208252,1850.649780 1433.208252,1863.615479 
	C1429.691895,1865.494263 1426.341553,1862.226440 1422.886597,1860.973999 
	C1396.277832,1851.326660 1370.023071,1840.624390 1343.146484,1831.810303 
	C1293.350220,1815.479980 1242.269287,1804.390381 1190.457397,1796.428467 
	C1131.979736,1787.442017 1073.146362,1785.004639 1014.102844,1785.054810 
	C926.461121,1785.129272 838.818542,1785.104858 751.177612,1784.767944 
	C725.730286,1784.670044 729.711914,1787.716309 722.715149,1763.579102 
	C711.227356,1723.949097 700.776672,1683.926147 692.133484,1643.587891 
	C681.524536,1594.075073 674.691956,1543.864868 671.117798,1493.283936 
	C666.552429,1428.675781 666.161804,1364.069702 673.308350,1299.639771 
	C677.160645,1264.909668 682.633911,1230.358643 687.449341,1195.737061 
	C687.847290,1192.875488 688.809265,1190.092285 689.650940,1186.701782 
	C697.302979,1187.232666 704.214722,1187.699951 711.124573,1188.193604 
	C814.680908,1195.591309 915.739685,1215.589233 1013.866211,1249.520386 
	C1095.629028,1277.793335 1174.394165,1312.880371 1248.234375,1358.220947 
	C1277.449585,1376.159912 1305.537354,1395.935303 1334.728027,1415.287354 
z"/>
<path fill="#FD553E" opacity="1.000000" stroke="none" 
	d="
M2618.763672,1394.736450 
	C2669.348633,1360.382446 2721.335938,1329.824463 2776.101807,1304.284668 
	C2856.011719,1267.019165 2938.385010,1236.870361 3024.537109,1216.888550 
	C3091.993652,1201.243042 3160.220703,1192.501587 3229.092773,1187.502197 
	C3231.052490,1187.359985 3233.031738,1187.484131 3235.917480,1187.484131 
	C3236.710938,1190.358765 3237.716064,1193.083008 3238.203125,1195.897217 
	C3255.039551,1293.212280 3260.057129,1391.090210 3253.584229,1489.688354 
	C3247.328613,1584.980347 3228.602051,1677.782349 3200.967773,1768.991333 
	C3195.528320,1786.944458 3199.127930,1785.978394 3178.261719,1785.973999 
	C3077.600098,1785.953247 2976.938721,1786.029053 2876.277100,1786.120361 
	C2814.782227,1786.176147 2753.859131,1792.130249 2693.408936,1803.462646 
	C2632.966309,1814.793823 2574.200684,1831.777710 2516.996826,1854.284546 
	C2508.744141,1857.531494 2500.356201,1860.434326 2490.643555,1864.006592 
	C2490.643555,1859.197021 2490.571289,1856.003906 2490.654541,1852.814697 
	C2491.595215,1816.843994 2493.671875,1780.860718 2493.246826,1744.906738 
	C2492.663574,1695.575806 2488.540527,1646.379395 2482.617432,1597.386108 
	C2479.698730,1573.245361 2476.165039,1549.172241 2472.462158,1525.137451 
	C2471.364258,1518.011353 2472.244385,1512.917236 2477.884033,1507.453857 
	C2521.117676,1465.572754 2568.493164,1428.941040 2618.763672,1394.736450 
z"/>
</svg>